<svg id="claim" xmlns="http://www.w3.org/2000/svg" width="45.041" height="45.041" viewBox="0 0 45.041 45.041">
  <path id="rect906" d="M3949.037,354.477a2.557,2.557,0,0,0-1.317.3,2.235,2.235,0,0,0-1.164,2.091,6.68,6.68,0,0,0,.744,2.726c.135.3.26.582.366.845a16.178,16.178,0,0,0-2.361,1.181c-.622.355-1.187.7-1.63.955-.221.126-.5.256-.635.319a.7.7,0,0,0-.706-.683h-2.109a.7.7,0,0,0-.7-.7h-9.154a.7.7,0,0,0-.7.7v11.966a.7.7,0,0,0,.7.707h9.154a.7.7,0,0,0,.7-.707h2.109a.7.7,0,0,0,.708-.7h.7a3.946,3.946,0,0,1,1.93.907c-.132.2-.263.39-.4.588-1.766,2.6-3.642,5.492-3.642,9.41a7.744,7.744,0,0,0,.882,3.747c-.017.04-.033.081-.047.122-2.023-.01-3.628,0-5.431,0a4.223,4.223,0,1,0-6.115.184,2.128,2.128,0,0,0-1.253,1.931v2.109a2.1,2.1,0,0,1,0,2.818V397.4a2.124,2.124,0,0,0,2.108,2.115h11.264a2.124,2.124,0,0,0,2.108-2.115v-2.109a2.1,2.1,0,0,0-.544-1.407,2.127,2.127,0,0,0,.5-.958c.736.7,1.651,1.555,2.621,2.427,1.115,1,2.28,2.007,3.284,2.774a5.665,5.665,0,0,0,2.591,1.388,36.363,36.363,0,0,0,5.215-.718c.969-.177,1.891-.351,2.613-.482.44-.09.912-.153,1.32-.209l.7,0a.706.706,0,0,0,.708.7h2.108a.7.7,0,0,0,.707.7H3974a.706.706,0,0,0,.708-.708V387.549a.705.705,0,0,0-.708-.707h-7.034a.7.7,0,0,0-.707.707h-2.108a.7.7,0,0,0-.708.7v.416c-.593-.162-1.091-.339-1.593-.521a7.73,7.73,0,0,0,.893-3.765c0-3.863-1.818-6.719-3.566-9.3a7.6,7.6,0,0,1,.751-4.423,2.1,2.1,0,0,1,0-2.815,2.129,2.129,0,0,0-1.627-2.058,2.156,2.156,0,0,0-.773-2.729c-.009-.007-.42-.332-1.016-.761a12.854,12.854,0,0,1,.61-2.44,10.275,10.275,0,0,0,.7-3.018,2.22,2.22,0,0,0-1.215-2.073,2.776,2.776,0,0,0-1.845-.213,4.9,4.9,0,0,0-2.151,1.336c-.151.132-.3.262-.458.388a6.633,6.633,0,0,0-2.6-1.724,2.4,2.4,0,0,0-.517-.076Zm6.276,1.407a1.369,1.369,0,0,1,.65.139.811.811,0,0,1,.447.815,10.608,10.608,0,0,1-.628,2.588,18.466,18.466,0,0,0-.563,1.986,15.306,15.306,0,0,0-1.375-.8,3.708,3.708,0,0,0-1.666-.514c-1.023,0-2.11-.009-3.115.01-.189-.472-.383-.878-.569-1.293a6.166,6.166,0,0,0,2.4-.254,7.412,7.412,0,0,0,2.635-1.621,3.976,3.976,0,0,1,1.538-1.024,1.118,1.118,0,0,1,.244-.034Zm-6.491,0a1.14,1.14,0,0,1,.367.026,4.5,4.5,0,0,1,1.7,1.145c-.126.055-.259.107-.4.154a3.7,3.7,0,0,1-2.2.1.49.49,0,0,1-.328-.481.818.818,0,0,1,.421-.822,1.085,1.085,0,0,1,.438-.125Zm18.836,4.219a.7.7,0,0,0-.693.7v.7a.7.7,0,1,0,1.408,0v-.7A.7.7,0,0,0,3967.659,360.107Zm-18.376,1.4h2.895c.939.055,3.27,1.737,4.5,2.665.428.322.511.675.387.947s-.52.607-1.366.607a5.7,5.7,0,0,1-1.814-.42,5.714,5.714,0,0,0-1.889-.516.706.706,0,0,0-.619.355,2.193,2.193,0,0,1-1.127,1.127,4.737,4.737,0,0,1-1.584.161.7.7,0,0,0-.023,1.408,11.994,11.994,0,0,1-2.186,5.365,4.833,4.833,0,0,0-2.71-1.141h-.7v-7.741a1.407,1.407,0,0,0,.669-.183c.2-.092.416-.207.655-.342.478-.27,1.044-.618,1.643-.961a9.514,9.514,0,0,1,3.277-1.331Zm20.5,1.4v.7a.7.7,0,0,0,1.408,0v-.7a.7.7,0,1,0-1.408,0Zm-4.938-.7a.707.707,0,0,0-.693.7v.706a.7.7,0,0,0,1.407,0v-.706a.705.705,0,0,0-.714-.7Zm-33.77.7h7.741v10.558h-7.741Zm9.149.7h1.408v9.149h-1.408Zm27.444,1.4a4.224,4.224,0,1,0,4.224,4.224A4.236,4.236,0,0,0,3967.667,365.022Zm-13.185,1.955a3.692,3.692,0,0,1-.187,3.682,2.1,2.1,0,0,1,0,2.816,2.117,2.117,0,0,0,2.108,2.109h1.414c1.792,2.641,3.517,5.247,3.517,8.8a6.088,6.088,0,0,1-.859,3.328,5.256,5.256,0,0,0-1.25-.165,16.061,16.061,0,0,0-3.855.755c-.806.226-1.62.493-2.408.752l-7.341-2.077a3.169,3.169,0,0,0-1.793-.017,2.152,2.152,0,0,0-.271.106,6.511,6.511,0,0,1-.517-2.682c0-3.471,1.644-6.034,3.4-8.62,1.643-2.424,3.406-4.87,3.621-7.99a3.52,3.52,0,0,0,.688-.183,3.322,3.322,0,0,0,1.587-1.32c.77.252,1.4.48,2.151.708Zm13.185-.547a2.816,2.816,0,1,1-2.815,2.816A2.807,2.807,0,0,1,3967.667,366.429Zm-11.263.707h1.414a.7.7,0,0,1,0,1.409H3956.4a.7.7,0,0,1,0-1.409Zm0,2.816h1.414a.7.7,0,0,1,0,1.408H3956.4a.7.7,0,0,1,0-1.408Zm0,2.815h1.414a.7.7,0,0,1,0,1.409H3956.4a.7.7,0,0,1,0-1.409Zm-22.532,3.528a.706.706,0,0,0-.687.707v.7a.7.7,0,1,0,1.408,0V377A.708.708,0,0,0,3933.872,376.3Zm2.816,2.1a.709.709,0,0,0-.689.7v.707a.7.7,0,0,0,1.408,0V379.1A.709.709,0,0,0,3936.688,378.4Zm-6.32.712v.707a.7.7,0,0,0,1.408,0v-.707a.7.7,0,0,0-1.408,0Zm3.523,3.512a2.812,2.812,0,1,1-2.816,2.816A2.806,2.806,0,0,1,3933.891,382.624Zm10.807,5.625a2.175,2.175,0,0,1,.539.08l6.46,1.824a2.1,2.1,0,0,0-.143,1.46,2.123,2.123,0,0,0,2.585,1.5l4.079-1.1a.7.7,0,0,0-.363-1.361l-4.079,1.1a.689.689,0,0,1-.863-.5.7.7,0,0,1,.522-.87s1.068-.366,2.326-.724a17.238,17.238,0,0,1,3.465-.7,7.574,7.574,0,0,1,2.307.57,11.831,11.831,0,0,0,1.91.594V396.7h-.7a13.044,13.044,0,0,0-1.568.228c-.733.133-1.657.314-2.619.489a39.506,39.506,0,0,1-4.96.69,9,9,0,0,1-1.74-1.1c-.95-.725-2.1-1.709-3.194-2.7-1.446-1.293-2.852-2.645-4.245-3.99a1.439,1.439,0,0,1-.619-1.605c.114-.374.519-.47.9-.465Zm22.97,0h5.631v9.857h-5.631Zm-2.815.708h1.407v8.448h-1.407Zm-33.077.7h1.409v1.4a.7.7,0,1,0,1.408,0v-1.4h2.114v1.4a.7.7,0,1,0,1.409,0v-1.4h2.108v1.4a.7.7,0,1,0,1.408,0v-1.4h.75a3.615,3.615,0,0,0,1.36,1.964v.851a.688.688,0,0,1-.7.708h-11.262a.692.692,0,0,1-.7-.708v-2.109a.687.687,0,0,1,.7-.706Zm0,4.932h1.409V396a.7.7,0,0,0,1.408,0V394.59h2.114V396a.7.7,0,0,0,1.409,0V394.59h2.108V396a.7.7,0,0,0,1.408,0V394.59h1.409a.683.683,0,0,1,.7.7V397.4a.687.687,0,0,1-.7.707h-11.262a.691.691,0,0,1-.7-.707v-2.109a.683.683,0,0,1,.7-.7Zm21.39-9.008a.485.485,0,0,1-.374-.16l-3.2-3.2a.488.488,0,0,1-.106-.587.467.467,0,0,1,.48-.32h1.6a1.6,1.6,0,0,0,0-3.2h-1.6a.534.534,0,0,1,0-1.068h5.874a.534.534,0,1,1,0,1.068H3953.7a2.875,2.875,0,0,1,.534,1.6,2.737,2.737,0,0,1-2.67,2.67h-.32l2.3,2.3a.516.516,0,0,1,0,.747.485.485,0,0,1-.374.16Zm2.669-5.34h-5.874a.534.534,0,0,1,0-1.068h5.874a.534.534,0,1,1,0,1.068Z" transform="translate(-3929.667 -354.475)" fill="#404345"/>
</svg>
