<svg id="incentive" xmlns="http://www.w3.org/2000/svg" width="44.994" height="44.994" viewBox="0 0 44.994 44.994">
  <g id="Group_1768" data-name="Group 1768" transform="translate(7.499 0)">
    <g id="Group_1767" data-name="Group 1767">
      <path id="Path_3996" data-name="Path 3996" d="M2966.422,367.984a.937.937,0,0,0-.2-.3L2954.034,355.5a.932.932,0,0,0-.662-.274h-19.685a4.692,4.692,0,0,0-4.687,4.687v11.248a.937.937,0,1,0,1.875,0V359.909a2.815,2.815,0,0,1,2.812-2.812h19.3l10.311,10.311h-6.174a2.815,2.815,0,0,1-2.812-2.812v-2.812a.937.937,0,1,0-1.875,0V364.6a4.692,4.692,0,0,0,4.687,4.687h7.5v26.246a2.816,2.816,0,0,1-2.812,2.812h-15.935a.937.937,0,1,0,0,1.875h15.935a4.692,4.692,0,0,0,4.687-4.687V368.345A.921.921,0,0,0,2966.422,367.984Z" transform="translate(-2929 -355.222)" fill="#404345"/>
    </g>
  </g>
  <g id="Group_1770" data-name="Group 1770" transform="translate(0 18.747)">
    <g id="Group_1769" data-name="Group 1769">
      <path id="Path_3997" data-name="Path 3997" d="M2908.79,438.555a13.123,13.123,0,1,0,13.123,13.123A13.138,13.138,0,0,0,2908.79,438.555Zm0,24.372a11.248,11.248,0,1,1,11.248-11.248A11.261,11.261,0,0,1,2908.79,462.927Z" transform="translate(-2895.667 -438.555)" fill="#404345"/>
    </g>
  </g>
  <g id="Group_1772" data-name="Group 1772" transform="translate(13.123 5.624)">
    <g id="Group_1771" data-name="Group 1771">
      <path id="Path_3998" data-name="Path 3998" d="M2957.75,380.222a3.749,3.749,0,1,0,3.75,3.75A3.753,3.753,0,0,0,2957.75,380.222Zm0,5.624a1.875,1.875,0,1,1,1.874-1.875A1.877,1.877,0,0,1,2957.75,385.846Z" transform="translate(-2954 -380.222)" fill="#404345"/>
    </g>
  </g>
  <g id="Group_1774" data-name="Group 1774" transform="translate(29.058 24.372)">
    <g id="Group_1773" data-name="Group 1773">
      <path id="Path_3999" data-name="Path 3999" d="M3034.207,463.555h-8.437a.937.937,0,0,0,0,1.875h8.437a.937.937,0,0,0,0-1.875Z" transform="translate(-3024.833 -463.555)" fill="#404345"/>
    </g>
  </g>
  <g id="Group_1776" data-name="Group 1776" transform="translate(29.058 29.996)">
    <g id="Group_1775" data-name="Group 1775">
      <path id="Path_4000" data-name="Path 4000" d="M3034.207,488.555h-8.437a.937.937,0,0,0,0,1.875h8.437a.937.937,0,0,0,0-1.875Z" transform="translate(-3024.833 -488.555)" fill="#404345"/>
    </g>
  </g>
  <g id="Group_1778" data-name="Group 1778" transform="translate(29.059 35.62)">
    <g id="Group_1777" data-name="Group 1777">
      <path id="Path_4001" data-name="Path 4001" d="M3030.458,513.555h-4.687a.937.937,0,1,0,0,1.875h4.687a.937.937,0,0,0,0-1.875Z" transform="translate(-3024.834 -513.555)" fill="#404345"/>
    </g>
  </g>
  <g id="Group_1779" data-name="Group 1779" transform="translate(8.808 26.909)">
    <path id="Path_4002" data-name="Path 4002" d="M2940.171,487.064a.694.694,0,0,1-.535-.229l-4.586-4.586a.7.7,0,0,1-.153-.841.669.669,0,0,1,.688-.459h2.293a2.293,2.293,0,0,0,0-4.586h-2.293a.764.764,0,0,1,0-1.529h8.408a.764.764,0,1,1,0,1.529h-3.058a4.118,4.118,0,0,1,.764,2.293,3.918,3.918,0,0,1-3.822,3.822h-.458l3.287,3.287a.739.739,0,0,1,0,1.07.694.694,0,0,1-.535.229Z" transform="translate(-2934.817 -474.834)" fill="#404345"/>
  </g>
  <g id="Group_1780" data-name="Group 1780" transform="translate(8.811 29.966)">
    <path id="Path_4003" data-name="Path 4003" d="M2944,489.954H2935.6a.764.764,0,1,1,0-1.529H2944a.764.764,0,1,1,0,1.529Z" transform="translate(-2934.831 -488.425)" fill="#404345"/>
  </g>
</svg>
