<svg id="Capa_1" enable-background="new 0 0 511.299 511.299" height="512" viewBox="0 0 511.299 511.299" width="512" xmlns="http://www.w3.org/2000/svg"><g><path d="m305.771 424.822h-170.973c.892 4.869 1.383 9.877 1.383 15s-.491 10.131-1.383 15h170.974c-1.427-4.754-2.204-9.787-2.204-15s.777-10.246 2.203-15z"/><path d="m424.276 280.774h-92.47c.637 3.256.98 6.615.98 10.055 0 7.061-1.415 13.795-3.963 19.945h95.453c31.442 0 57.023 25.581 57.023 57.024s-25.581 57.023-57.023 57.023h-18.344c1.427 4.754 2.204 9.787 2.204 15s-.777 10.246-2.204 15h18.344c47.985 0 87.023-39.039 87.023-87.024 0-47.984-39.038-87.023-87.023-87.023z"/><path d="m229.198 280.774h-89.598c-18.157 0-32.929-14.772-32.929-32.929 0-18.142 14.759-32.902 32.901-32.902h252.583c-8.54-9.268-17.424-19.413-25.941-30h-226.642c-34.684 0-62.901 28.218-62.901 62.902 0 34.699 28.23 62.929 62.929 62.929h92.581c-2.548-6.15-3.963-12.885-3.963-19.945 0-3.439.343-6.799.98-10.055z"/><ellipse cx="53.09" cy="439.822" rx="53.071" ry="53.09" transform="matrix(.003 -1 1 .003 -386.894 491.546)"/><path d="m348.789 90.33c0 21.221 25.185 60.99 67.368 106.382 1.617 1.74 3.563 2 4.579 2 1.017 0 2.963-.26 4.581-2.001 42.183-45.391 67.367-85.16 67.367-106.382 0-39.658-32.275-71.923-71.947-71.923-39.673.001-71.948 32.266-71.948 71.924zm71.948-11.671c8.382 0 14.588 6.85 14.951 14.951.362 8.074-7.13 14.951-14.951 14.951-8.382 0-14.588-6.85-14.951-14.951-.361-8.075 7.131-14.951 14.951-14.951z"/><path d="m378.135 439.822c0-12.287-9.996-22.284-22.283-22.284s-22.284 9.997-22.284 22.284 9.997 22.283 22.284 22.283 22.283-9.996 22.283-22.283z"/><path d="m302.786 290.829c0-12.287-9.997-22.283-22.284-22.283s-22.283 9.996-22.283 22.283 9.996 22.284 22.283 22.284 22.284-9.997 22.284-22.284z"/></g></svg>