<svg id="Registration" xmlns="http://www.w3.org/2000/svg" width="45.08" height="45.08" viewBox="0 0 45.08 45.08">
  <path id="Path_3989" data-name="Path 3989" d="M1911.41,392.258h-.7V366.9a2.817,2.817,0,0,0-2.818-2.817h-3.522v-9.157a.7.7,0,0,0-.7-.7h-25.357a.7.7,0,0,0-.7.7v9.157h-3.522a2.817,2.817,0,0,0-2.817,2.817v25.357h-.7a2.113,2.113,0,0,0-2.113,2.113v1.409a3.522,3.522,0,0,0,3.522,3.522H1910a3.522,3.522,0,0,0,3.522-3.522v-1.409A2.113,2.113,0,0,0,1911.41,392.258Zm-35.923-2.818V368.309h2.113V389.44Zm3.522-29.583h23.948V389.44H1879.01Zm25.357,8.453h2.113V389.44h-2.113Zm-25.357-12.679h23.948v2.818H1879.01Zm-6.339,11.27a1.409,1.409,0,0,1,1.409-1.409h3.522V366.9h-2.818a.7.7,0,0,0-.7.7v22.54a.7.7,0,0,0,.7.7h32.4a.7.7,0,0,0,.7-.7v-22.54a.7.7,0,0,0-.7-.7h-2.818v-1.409h3.522a1.409,1.409,0,0,1,1.409,1.409v25.357H1872.67Zm24.04,26.766-.472.7h-10.509l-.472-.7Zm15.4,2.113a2.113,2.113,0,0,1-2.113,2.113h-38.036a2.113,2.113,0,0,1-2.113-2.113v-1.409a.7.7,0,0,1,.7-.7h13l1.2,1.8c.3.451-.289.317,11.854.317.486,0,.521-.211,1.789-2.113h13a.7.7,0,0,1,.7.7Z" transform="translate(-1868.444 -354.222)" fill="#404345"/>
  <path id="Path_3990" data-name="Path 3990" d="M1922.539,363.644a.7.7,0,1,0,.7.7A.7.7,0,0,0,1922.539,363.644Z" transform="translate(-1909.861 -361.531)" fill="#404345"/>
  <path id="Path_3991" data-name="Path 3991" d="M1935.1,363.644a.7.7,0,1,0,.7.7A.7.7,0,0,0,1935.1,363.644Z" transform="translate(-1919.605 -361.531)" fill="#404345"/>
  <path id="Path_3992" data-name="Path 3992" d="M1947.664,363.644a.7.7,0,1,0,.7.7A.7.7,0,0,0,1947.664,363.644Z" transform="translate(-1929.35 -361.531)" fill="#404345"/>
  <path id="Path_3993" data-name="Path 3993" d="M1937.116,399.215a7.492,7.492,0,0,0,2.592,1.493,7.8,7.8,0,0,0,6.255-.563c6.98-3.881,4.163-14.517-3.769-14.517a7.748,7.748,0,0,0-5.079,13.587Zm3.219-7.121v-.641a1.86,1.86,0,0,1,3.719,0v.641a1.86,1.86,0,1,1-3.719,0Zm5.438,6.509a6.34,6.34,0,0,1-7.156,0c-.212-.148-.183-.035,0-.7a3.74,3.74,0,0,1,7.086,0C1945.956,398.567,1945.984,398.455,1945.773,398.6Zm-3.578-11.566a6.339,6.339,0,0,1,4.867,10.4,5.15,5.15,0,0,0-2.634-2.965,3.571,3.571,0,0,0,1.035-3.015,3.268,3.268,0,0,0-6.536,0,3.589,3.589,0,0,0,1.035,3.015,5.149,5.149,0,0,0-2.634,2.965,6.339,6.339,0,0,1,4.867-10.4Z" transform="translate(-1919.655 -378.584)" fill="#404345"/>
  <path id="Path_3994" data-name="Path 3994" d="M1947.457,461h-15.5a.7.7,0,0,0-.7.7v2.818a.7.7,0,0,0,.7.7h15.5a.7.7,0,0,0,.7-.7v-2.818A.7.7,0,0,0,1947.457,461Zm-.7,2.818h-14.087v-1.409h14.087Z" transform="translate(-1917.17 -437.055)" fill="#404345"/>
  <path id="Path_3995" data-name="Path 3995" d="M1947.457,486.128h-15.5a.7.7,0,0,0-.7.7v2.818a.7.7,0,0,0,.7.7h15.5a.7.7,0,0,0,.7-.7v-2.818A.7.7,0,0,0,1947.457,486.128Zm-.7,2.818h-14.087v-1.409h14.087Z" transform="translate(-1917.17 -456.545)" fill="#404345"/>
</svg>
