<svg id="svg5" height="512" viewBox="0 0 64 64" width="512" xmlns="http://www.w3.org/2000/svg" xmlns:svg="http://www.w3.org/2000/svg"><path id="text33716" d="m32 4c-1.78995 0-3.07592 1.13563-4.17188 2.097656-1.09595.962025-2.0558 1.774383-2.97851 1.914063-.91234.138111-2.69695-.792147-4.41211-1.701172-.85757-.454512-1.70085-.886133-2.62695-1.023437-.92609-.137305-2.07108.239004-2.66016 1.183593-.8529 1.367638-.4794 2.991345.30078 4.333985.78018 1.342639 1.98496 2.601968 3.2461 3.734374 1.60099 1.437569 2.33918 1.835174 3.375 2.53711-1.14539.423795-2.07227 1.328919-2.07227 2.613281 0 1.127316.73776 1.931204 1.66797 2.443359-3.14859 2.046676-5.78373 5.300935-7.74805 9.042969-2.47131 4.707832-3.91992 10.12792-3.91992 14.824219 0 6.069204 2.64577 9.822606 6.72266 11.753906 4.07689 1.931299 9.43807 2.246094 15.27734 2.246094 5.83928 0 11.20045-.314795 15.27734-2.246094 4.07689-1.9313 6.72266-5.684702 6.72266-11.753906 0-4.696299-1.45057-10.116387-3.92188-14.824219-1.96427-3.74193-4.59762-6.99628-7.74609-9.042969.93022-.512153 1.66797-1.316039 1.66797-2.443359 0-1.284367-.92688-2.189487-2.07227-2.613281 1.03586-.701982 1.77227-1.099735 3.37305-2.53711 1.26113-1.132407 2.46592-2.391735 3.2461-3.734374.78017-1.34264 1.15368-2.966347.30078-4.333985-.58908-.944589-1.73406-1.320898-2.66016-1.183593-.92609.137304-1.76937.568925-2.62695 1.023437-1.71515.909025-3.49976 1.839283-4.41211 1.701172-.92271-.13968-1.88258-.952038-2.97852-1.914063-1.09595-.962026-2.37996-2.097656-4.16992-2.097656zm0 2c.89747 0 1.78365.66415 2.85156 1.601563 1.06791.937412 2.26362 2.124158 3.99805 2.386718 2.12622.321868 4.02979-1.052275 5.64844-1.910156.80933-.42894 1.54334-.7474 1.98242-.8125.43909-.0651.44589-.09556.66992.263672.35385.567395.2632 1.24714-.33203 2.271484-.59522 1.024344-1.67742 2.193945-2.85352 3.25-2.25904 2.028447-4.63625 3.513015-4.83593 3.638672h-14.25782c-.19964-.125627-2.57883-1.610205-4.83789-3.638672-1.17611-1.056055-2.25828-2.225656-2.85351-3.25-.59522-1.024344-.68587-1.704089-.33203-2.271484.22403-.359235.23084-.328771.66992-.263672.43909.0651 1.17504.38356 1.98437.8125 1.61865.857881 3.52028 2.232024 5.64649 1.910156 1.73444-.26256 2.93209-1.449306 4-2.386718 1.06791-.937413 1.9541-1.601563 2.85156-1.601563zm-9 12.689453h18c.5713 0 1 .428718 1 1 0 .571297-.4287 1-1 1h-18c-.57129 0-1-.428697-1-1 0-.571288.42871-1 1-1zm1.79297 4h14.41211c3.56896 1.450569 6.8056 5.038502 9.10351 9.416016 2.32502 4.429164 3.69141 9.61666 3.69141 13.894531 0 5.528765-2.05647 8.276111-5.58008 9.945312-3.52361 1.669202-8.66123 2.054688-14.41992 2.054688-5.75868 0-10.89827-.385485-14.42188-2.054688-3.5236-1.669201-5.57812-4.416547-5.57812-9.945312 0-4.277871 1.36639-9.465367 3.69141-13.894531 2.29789-4.377484 5.53263-7.965428 9.10156-9.416016zm3.51758 10.654297c-.29334 0-.54024.09458-.74024.28125-.18666.186667-.28125.419219-.28125.699219 0 .293333.0946.540234.28125.740234.2.186667.4469.279297.74024.279297h2.77929c.52 0 .96651.20776 1.33985.621094.15932.164819.27742.354979.37109.560547h-4.49023c-.29334 0-.54024.09263-.74024.279297-.18666.173333-.28125.405885-.28125.699218 0 .293334.0946.540235.28125.740235.2.186666.4469.28125.74024.28125h4.5332c-.0369.113956-.0625.234751-.11328.339843-.17333.386667-.40784.693256-.70117.919922-.28.213334-.57224.326511-.87891.339844h-2.80078c-.28 0-.51875.08023-.71875.240234-.18667.146667-.28125.358672-.28125.638672 0 .293334.0946.527839.28125.701172.2.16.43875.240234.71875.240234h2.25977c.29333.000001.56697.03914.82031.119141.25333.06667.47349.179844.66015.339844.18667.146667.33279.340078.43946.580078.10666.24.16015.526042.16015.859375 0 .666667.0678 1.228307.20117 1.681641.13334.44.3.800078.5 1.080078.21334.266666.43969.460078.67969.580078.25334.106667.48589.158203.69922.158203.29333 0 .52784-.07828.70117-.238281.18667-.16.2793-.367761.2793-.621094 0-.16-.0391-.30612-.11914-.439453-.08-.146667-.20133-.266042-.36133-.359375-.16-.09333-.27937-.227057-.35937-.400391-.0667-.173333-.11396-.393489-.14063-.660156-.0267-.28-.0596-.627682-.0996-1.041016-.0267-.426666-.13364-.819687-.32031-1.179687s-.42542-.678985-.71875-.958985c-.17245-.172444-.36006-.311722-.55274-.433593.35246-.201141.68132-.443096.97266-.746094.33333-.346667.59883-.73349.79883-1.160156.0929-.191587.15654-.385964.20898-.580078h.63086c.28 0 .52071-.09458.72071-.28125.2-.2.29882-.43875.29882-.71875s-.0988-.514506-.29882-.701172c-.2-.2-.44071-.298828-.72071-.298828h-.77929c-.0627-.137729-.13523-.272176-.22071-.400391-.20338-.305077-.45458-.562351-.74414-.78125h1.74414c.28 0 .52071-.09263.72071-.279297s.29882-.419219.29882-.699219c0-.293333-.0988-.534036-.29882-.720703-.2-.2-.44071-.300781-.72071-.300781z"/></svg>