<svg id="signup" xmlns="http://www.w3.org/2000/svg" width="45.041" height="45.041" viewBox="0 0 45.041 45.041">
  <g id="Page-1" transform="translate(0 0)">
    <g id="_022---Signup-Page" data-name="022---Signup-Page">
      <path id="Shape" d="M880.8,431.083a1.5,1.5,0,0,0,1.5,1.5h3a1.5,1.5,0,0,0,1.5-1.5,2.991,2.991,0,0,0-1.215-2.4,2.253,2.253,0,1,0-3.575,0,2.991,2.991,0,0,0-1.215,2.4Zm1.5,0a1.5,1.5,0,0,1,3,0Zm.75-3.753a.751.751,0,1,1,.751.751A.751.751,0,0,1,883.055,427.33Z" transform="translate(-875.548 -409.314)" fill="#404345"/>
      <path id="Shape-2" data-name="Shape" d="M947.456,425.078H926.437a2.252,2.252,0,0,0-2.252,2.252v3a2.252,2.252,0,0,0,2.252,2.252h21.019a2.252,2.252,0,0,0,2.252-2.252v-3a2.252,2.252,0,0,0-2.252-2.252Zm.751,5.255a.751.751,0,0,1-.751.751H926.437a.751.751,0,0,1-.751-.751v-3a.751.751,0,0,1,.751-.751h21.019a.751.751,0,0,1,.751.751Z" transform="translate(-909.171 -409.314)" fill="#404345"/>
      <path id="Shape-3" data-name="Shape" d="M947.456,465.122H926.437a2.252,2.252,0,0,0-2.252,2.252v3a2.252,2.252,0,0,0,2.252,2.252h21.019a2.252,2.252,0,0,0,2.252-2.252v-3A2.252,2.252,0,0,0,947.456,465.122Zm.751,5.255a.751.751,0,0,1-.751.751H926.437a.751.751,0,0,1-.751-.751v-3a.751.751,0,0,1,.751-.751h21.019a.751.751,0,0,1,.751.751Z" transform="translate(-909.171 -440.35)" fill="#404345"/>
      <path id="Shape-4" data-name="Shape" d="M898.731,355H861.2a3.758,3.758,0,0,0-3.754,3.753v37.534a3.758,3.758,0,0,0,3.754,3.753h37.534a3.758,3.758,0,0,0,3.753-3.753V358.753A3.758,3.758,0,0,0,898.731,355Zm-39.786,4.5h18.016a.751.751,0,0,1,.751.751v1.5a2.252,2.252,0,0,0,2.252,2.252h21.019v1.5H858.945Zm2.252-3h37.534a2.252,2.252,0,0,1,2.252,2.252v3.754H879.964a.751.751,0,0,1-.751-.751v-1.5A2.252,2.252,0,0,0,876.962,358H859.083a2.252,2.252,0,0,1,2.114-1.5Zm37.534,42.038H861.2a2.252,2.252,0,0,1-2.252-2.252V367.011h42.038v29.277A2.252,2.252,0,0,1,898.731,398.539Z" transform="translate(-857.444 -355)" fill="#404345"/>
      <path id="Shape-5" data-name="Shape" d="M883.138,385.033H874.88a.751.751,0,0,0,0,1.5h8.258a.751.751,0,0,0,0-1.5Z" transform="translate(-870.376 -378.277)" fill="#404345"/>
      <path id="Shape-6" data-name="Shape" d="M930.273,381.917a.75.75,0,0,0-1.061,0l-.22.22-.22-.22a.751.751,0,0,0-1.062,1.062l.22.22-.22.22a.751.751,0,1,0,1.062,1.061l.22-.22.22.22a.751.751,0,0,0,1.061-1.061l-.22-.22.22-.22A.751.751,0,0,0,930.273,381.917Z" transform="translate(-911.726 -375.691)" fill="#404345"/>
      <ellipse id="Oval" cx="0.751" cy="0.751" rx="0.751" ry="0.751" transform="translate(39.036 3.753)" fill="#404345"/>
      <ellipse id="Oval-2" data-name="Oval" cx="0.751" cy="0.751" rx="0.751" ry="0.751" transform="translate(36.033 3.753)" fill="#404345"/>
      <ellipse id="Oval-3" data-name="Oval" cx="0.751" cy="0.751" rx="0.751" ry="0.751" transform="translate(33.03 3.753)" fill="#404345"/>
      <path id="Shape-7" data-name="Shape" d="M880.886,465.122h-4.5a2.252,2.252,0,0,0-2.252,2.252v3a2.252,2.252,0,0,0,2.252,2.252h4.5a2.252,2.252,0,0,0,2.252-2.252v-3A2.252,2.252,0,0,0,880.886,465.122Zm-.311,1.5-1.19,1.191a1.081,1.081,0,0,1-1.5,0l-1.19-1.191Zm.311,4.5h-4.5a.751.751,0,0,1-.751-.751v-2.692l1.185,1.185a2.557,2.557,0,0,0,3.632,0l1.188-1.185v2.692A.751.751,0,0,1,880.886,471.128Z" transform="translate(-870.376 -440.35)" fill="#404345"/>
      <path id="Shape-8" data-name="Shape" d="M982.915,505.167h-9.008a3,3,0,0,0,0,6.005h9.008a3,3,0,0,0,0-6.005Zm0,4.5h-9.008a1.5,1.5,0,0,1,0-3h9.008a1.5,1.5,0,0,1,0,3Z" transform="translate(-945.381 -471.386)" fill="#404345"/>
      <path id="Shape-9" data-name="Shape" d="M941.286,505.167h-1.5a2.252,2.252,0,0,0-2.252,2.252v1.5a2.252,2.252,0,0,0,2.252,2.252h1.5a2.252,2.252,0,0,0,2.252-2.252v-1.5a2.252,2.252,0,0,0-2.252-2.252Zm.751,3.753a.751.751,0,0,1-.751.751h-1.5a.751.751,0,0,1-.751-.751v-1.5a.751.751,0,0,1,.751-.751h1.5a.751.751,0,0,1,.751.751Z" transform="translate(-919.517 -471.386)" fill="#404345"/>
    </g>
  </g>
</svg>
