<svg height="512" viewBox="0 0 60 61" width="512" xmlns="http://www.w3.org/2000/svg"><g id="Page-1" fill="none" fill-rule="evenodd"><g id="013---Signing-Loan-Forms" fill="rgb(0,0,0)" fill-rule="nonzero"><path id="Shape" d="m4 55h2v1.988c-.01581218 1.0553665.39485224 2.072473 1.139 2.821.75424242.7662641 1.78581619 1.1956959 2.861 1.191h33c2.209139 0 4-1.790861 4-4v-12c0-.5522847-.4477153-1-1-1s-1 .4477153-1 1v12c0 1.1045695-.8954305 2-2 2h-33c-.54073486.0026202-1.05948751-.2138273-1.438-.6-.36892698-.3714793-.57167278-.87654-.562-1.4v-2h29c2.209139 0 4-1.790861 4-4v-3.74c0-.5522847-.4477153-1-1-1s-1 .4477153-1 1v3.74c0 1.1045695-.8954305 2-2 2h-33c-1.1045695 0-2-.8954305-2-2v-46c0-1.1045695.8954305-2 2-2h33c1.1045695 0 2 .8954305 2 2v8c0 .5522847.4477153 1 1 1s1-.4477153 1-1v-8c0-2.209139-1.790861-4-4-4h-33c-2.209139 0-4 1.790861-4 4v46c0 2.209139 1.790861 4 4 4z"/><path id="Shape" d="m5 7c-.55228475 0-1 .44771525-1 1v9c0 .5522847.44771525 1 1 1h4c.55228475 0 1-.4477153 1-1s-.44771525-1-1-1h-3v-8c0-.55228475-.44771525-1-1-1z"/><path id="Shape" d="m19 12.5c0-3.084-1.757-5.5-4-5.5s-4 2.416-4 5.5 1.757 5.5 4 5.5 4-2.416 4-5.5zm-6 0c0-2.062 1.054-3.5 2-3.5s2 1.438 2 3.5-1.054 3.5-2 3.5-2-1.437-2-3.5z"/><path id="Shape" d="m24.949 7.684c-.1348836-.41037454-.5180268-.6877501-.95-.6877501s-.8151164.27737556-.95.6877501l-3 9c-.174522.5246705.1093295 1.091478.634 1.266s1.091478-.1093295 1.266-.634l.439-1.316h3.224l.439 1.316c.1128959.3394023.398285.5927937.748664.6647241s.712517-.0485281.95-.316c.2374831-.2674719.3142319-.6413218.201336-.9807241zm-1.895 6.316.946-2.838.946 2.838z"/><path id="Shape" d="m32 17v-5.141l3.126 5.627c.1764353.3172782.5109644.514015.874.514.0846924.0001354.1690507-.0106194.251-.032.4410329-.1143603.7490059-.5123815.749-.968v-9c0-.55228475-.4477153-1-1-1s-1 .44771525-1 1v5.141l-3.126-5.627c-.2214016-.39821913-.6839956-.59643052-1.1250339-.48205239s-.7489999.5124241-.7489661.96805239v9c0 .5522847.4477153 1 1 1s1-.4477153 1-1z"/><path id="Shape" d="m5 25h13c.5522847 0 1-.4477153 1-1s-.4477153-1-1-1h-13c-.55228475 0-1 .4477153-1 1s.44771525 1 1 1z"/><path id="Shape" d="m5 30h13c.5522847 0 1-.4477153 1-1s-.4477153-1-1-1h-13c-.55228475 0-1 .4477153-1 1s.44771525 1 1 1z"/><path id="Shape" d="m5 35h13c.5522847 0 1-.4477153 1-1s-.4477153-1-1-1h-13c-.55228475 0-1 .4477153-1 1s.44771525 1 1 1z"/><path id="Shape" d="m22 24c0 .5522847.4477153 1 1 1h9.34c.5522847 0 1-.4477153 1-1s-.4477153-1-1-1h-9.34c-.5522847 0-1 .4477153-1 1z"/><path id="Shape" d="m23 30h3.88c.5522847 0 1-.4477153 1-1s-.4477153-1-1-1h-3.88c-.5522847 0-1 .4477153-1 1s.4477153 1 1 1z"/><path id="Shape" d="m23 35h4.07c.5522847 0 1-.4477153 1-1s-.4477153-1-1-1h-4.07c-.5522847 0-1 .4477153-1 1s.4477153 1 1 1z"/><path id="Shape" d="m5 40h13c.5522847 0 1-.4477153 1-1s-.4477153-1-1-1h-13c-.55228475 0-1 .4477153-1 1s.44771525 1 1 1z"/><path id="Shape" d="m29.87 39c0-.5522847-.4477153-1-1-1h-5.87c-.5522847 0-1 .4477153-1 1s.4477153 1 1 1h5.87c.5522847 0 1-.4477153 1-1z"/><path id="Shape" d="m6 48h3.133c.9108689.0030131 1.7442568-.5119888 2.149-1.328.068402-.1552928.2321246-.2457496.4-.221.1677419.0091901.3097924.1268891.35.29l.177.617c.2507302.9043704 1.0106957 1.5761501 1.939 1.714.1260275.0198851.2534134.0299155.381.03.8009466.0013775 1.5485431-.401377 1.988-1.071l1.151-1.726c.0738482-.1131839.1998551-.1814251.335-.1814251s.2611518.0682412.335.1814251l.416.626c.4456583.6686921 1.1964083 1.0699681 2 1.069h3.246c.5522847 0 1-.4477153 1-1s-.4477153-1-1-1h-3.25c-.1343265.0001997-.2597847-.0670369-.334-.179l-.416-.621c-.4446589-.6703485-1.1955819-1.0733501-2-1.0733501s-1.5553411.4030016-2 1.0733501l-1.15 1.722c-.0858076.1326208-.241626.2023239-.3976857.177899-.1560598-.0244248-.2831302-.1384028-.3243143-.290899l-.176-.617c-.270195-.9541179-1.0993661-1.6438167-2.0867352-1.735732-.9873692-.0919152-1.92959906.432882-2.3712648 1.320732-.06774238.1372927-.20790672.2238762-.361.223h-3.133c-.55228475 0-1 .4477153-1 1s.44771525 1 1 1z"/><path id="Shape" d="m28 48h5.518.016c.4305162-.000725.8447234-.1647639 1.159-.459 2.277-2.1 6.951-5.645 12.672-5.762.9092557-.0037415 1.6563801-.7187835 1.7-1.627.018-.368.479-9.057 3-13.782l7.82-14.68c.1679148-.3154655.1547757-.6965492-.0344681-.9997004-.1892437-.3031513-.5258414-.4823143-.883-.47-.3571585.0123142-.6806171.2142349-.8485319.5297004l-7.349 13.8-3.794-2.02-5.03-2.681 9.254-17.379c.1917095-.31671319.1927551-.71342686.0027179-1.03114626s-.5400579-.50445007-.9097809-.48535417c-.369723.01909589-.6986436.24089333-.854937.57650043l-9.729 18.256c-2.52 4.728-9.475 9.952-9.77 10.172-.7275318.5439705-.903147 1.5616604-.4 2.318 3.201 4.992 2.661 11.253 2.278 13.724h-3.817c-.5522847 0-1 .4477153-1 1s.4477153 1 1 1zm3.347-16.6c1.192-.913 6.862-5.377 9.623-9.8l5.83 3.1 3.062 1.633c-2.135 4.758-2.682 11.957-2.775 13.457-4.0864936.2680781-8.001477 1.743027-11.249 4.238l3.234-6.137c1.968938.4902572 3.9950921-.5609348 4.7280667-2.4529753.7329745-1.8920406-.0561994-4.0338878-1.8415515-4.9980387-1.785352-.964151-4.0091681-.449421-5.1893145 1.2011315s-.947965 3.9213226.5417993 5.2988825l-3.211 6.082c.2471526-4.0606025-.7105808-8.1037474-2.753-11.622zm7.713 4.365c-.7137907-.3803716-1.1282174-1.1532198-1.0500782-1.9582503.0781392-.8050304.6334604-1.4837514 1.4070782-1.7197497.1890749-.0571685.3854721-.0864765.583-.087.8323406.0005727 1.5773161.5165838 1.8704702 1.2955908.293154.779007.0731957 1.6581398-.5522671 2.2073095-.6254628.5491698-1.5256622.6535595-2.2602031.2620997z"/></g></g></svg>